<svg width="800" height="480" viewBox="0 0 800 480" fill="none" xmlns="http://www.w3.org/2000/svg">
<g clip-path="url(#clip0_2_47)">
<rect width="800" height="480" fill="url(#paint0_radial_2_47)"/>
<circle cx="400" cy="287" r="222" stroke="url(#paint1_linear_2_47)" stroke-width="6"/>
<path d="M260.69 288.08C255.836 288.08 251.416 286.91 247.43 284.57C243.53 282.23 240.453 278.98 238.2 274.82C235.946 270.573 234.82 265.59 234.82 259.87H254.06C254.06 266.543 256.226 269.88 260.56 269.88C264.893 269.88 267.06 265.633 267.06 257.14C267.06 248.733 264.936 244.53 260.69 244.53C258.09 244.53 256.226 245.743 255.1 248.17L237.03 242.58L245.48 195H284.35L283.7 212.16H261.6L258.35 229.97C259.65 228.757 261.123 227.847 262.77 227.24C264.416 226.633 266.063 226.33 267.71 226.33C271.35 226.33 274.556 227.587 277.33 230.1C280.103 232.613 282.27 236.08 283.83 240.5C285.476 244.833 286.3 249.903 286.3 255.71C286.3 262.21 285.26 267.887 283.18 272.74C281.1 277.593 278.153 281.363 274.34 284.05C270.526 286.737 265.976 288.08 260.69 288.08ZM316.837 288.08C311.81 288.08 307.347 286.78 303.447 284.18C299.633 281.493 296.6 277.81 294.347 273.13C292.18 268.45 291.097 263.077 291.097 257.01V223.86C291.097 217.793 292.18 212.463 294.347 207.87C296.6 203.19 299.633 199.55 303.447 196.95C307.347 194.263 311.81 192.92 316.837 192.92C321.863 192.92 326.283 194.263 330.097 196.95C333.997 199.55 337.03 203.19 339.197 207.87C341.45 212.463 342.577 217.793 342.577 223.86V257.01C342.577 263.077 341.45 268.45 339.197 273.13C337.03 277.81 333.997 281.493 330.097 284.18C326.283 286.78 321.863 288.08 316.837 288.08ZM316.837 269.88C321.17 269.88 323.337 266.153 323.337 258.7V222.3C323.337 214.847 321.17 211.12 316.837 211.12C312.503 211.12 310.337 214.847 310.337 222.3V258.7C310.337 266.153 312.503 269.88 316.837 269.88Z" fill="url(#paint2_linear_2_47)"/>
<path d="M274.226 379L282.626 323H297.266L305.746 379H294.146L293.346 371.32H286.786L285.906 379H274.226ZM288.946 351.96L287.986 360.2H292.146L291.266 351.96L290.866 340.52H289.426L288.946 351.96Z" fill="url(#paint3_linear_2_47)"/>
<path d="M286.753 501.433C284.818 505.095 280.274 506.506 276.671 504.463C233.417 479.933 198.406 443.025 176.196 398.408C152.871 351.551 144.841 298.553 153.239 246.889C161.637 195.225 186.039 147.499 223.005 110.442C258.203 75.1569 303.101 51.2385 351.898 41.6713C355.962 40.8743 359.826 43.6517 360.501 47.7385V47.7385C361.175 51.8254 358.405 55.6733 354.342 56.478C308.644 65.5286 266.605 87.9739 233.625 121.036C198.877 155.869 175.939 200.731 168.044 249.296C160.15 297.86 167.698 347.677 189.624 391.724C210.435 433.529 243.201 468.134 283.68 491.193C287.279 493.243 288.687 497.77 286.753 501.433V501.433Z" fill="url(#paint4_linear_2_47)"/>
<path d="M458.653 286V270.79L484.003 236.6C486.603 233.047 488.423 229.797 489.463 226.85C490.589 223.903 491.153 221.303 491.153 219.05C491.153 216.71 490.589 214.803 489.463 213.33C488.336 211.857 486.776 211.12 484.783 211.12C482.703 211.12 481.056 212.03 479.843 213.85C478.629 215.583 478.023 218.097 478.023 221.39H459.563C459.563 214.803 460.776 209.43 463.203 205.27C465.716 201.023 468.966 197.903 472.953 195.91C476.939 193.917 481.099 192.92 485.433 192.92C489.506 192.92 493.406 193.83 497.133 195.65C500.946 197.383 504.066 200.113 506.493 203.84C508.919 207.567 510.133 212.42 510.133 218.4C510.133 222.907 509.179 227.587 507.273 232.44C505.453 237.293 502.029 243.1 497.003 249.86L482.963 268.84H510.133L509.483 286H458.653ZM539.227 288.08C534.201 288.08 529.737 286.867 525.837 284.44C521.937 282.013 518.904 278.677 516.737 274.43C514.571 270.183 513.487 265.33 513.487 259.87H532.727C532.727 263.25 533.291 265.763 534.417 267.41C535.631 269.057 537.234 269.88 539.227 269.88C541.481 269.88 543.127 268.883 544.167 266.89C545.207 264.81 545.727 261.56 545.727 257.14C545.727 252.807 545.207 249.643 544.167 247.65C543.214 245.57 541.741 244.53 539.747 244.53C538.881 244.53 538.101 244.79 537.407 245.31C536.714 245.743 536.107 246.35 535.587 247.13L522.197 238.16L539.877 212.16H514.657L515.307 195H562.627V206.83L548.197 228.15C553.311 229.277 557.384 232.353 560.417 237.38C563.451 242.407 564.967 248.733 564.967 256.36C564.967 262.773 563.884 268.363 561.717 273.13C559.637 277.897 556.647 281.58 552.747 284.18C548.934 286.78 544.427 288.08 539.227 288.08Z" fill="url(#paint5_linear_2_47)"/>
<path d="M463.751 379V323H476.711L479.511 346.92L482.391 323H495.271V379H485.271V345.48L482.471 369H476.471L473.751 345.96V379H463.751ZM501.329 379V323H517.009C522.076 323 525.969 324.52 528.689 327.56C531.462 330.547 532.849 334.84 532.849 340.44V341.8C532.849 347.4 531.462 351.72 528.689 354.76C525.969 357.8 522.076 359.32 517.009 359.32H512.929V379H501.329ZM515.409 333.88H512.929V348.44H515.409C519.142 348.44 521.009 346.413 521.009 342.36V339.96C521.009 335.907 519.142 333.88 515.409 333.88ZM531.422 379L539.822 323H554.462L562.942 379H551.342L550.542 371.32H543.982L543.102 379H531.422ZM546.142 351.96L545.182 360.2H549.342L548.462 351.96L548.062 340.52H546.622L546.142 351.96Z" fill="url(#paint6_linear_2_47)"/>
<path d="M513.247 501.433C515.182 505.095 519.726 506.506 523.329 504.463C566.583 479.933 601.594 443.025 623.804 398.408C647.129 351.551 655.159 298.553 646.761 246.889C638.363 195.225 613.961 147.499 576.995 110.442C541.797 75.1569 496.899 51.2385 448.102 41.6713C444.038 40.8743 440.174 43.6517 439.499 47.7385V47.7385C438.825 51.8254 441.595 55.6733 445.658 56.478C491.356 65.5286 533.395 87.9739 566.375 121.036C601.123 155.869 624.061 200.731 631.956 249.296C639.85 297.86 632.302 347.677 610.376 391.724C589.565 433.529 556.799 468.134 516.32 491.193C512.721 493.243 511.313 497.77 513.247 501.433V501.433Z" fill="url(#paint7_linear_2_47)"/>
<path d="M307.651 463V418.2H319.619C323.885 418.2 327.107 419.181 329.283 421.144C331.501 423.064 332.611 425.923 332.611 429.72V431.896C332.611 433.987 332.035 435.736 330.883 437.144C329.773 438.552 328.088 439.512 325.827 440.024V441.048C330.52 441.944 332.867 444.675 332.867 449.24V451.416C332.867 455.213 331.757 458.093 329.539 460.056C327.363 462.019 324.141 463 319.875 463H307.651ZM316.931 436.376H318.723C321.709 436.376 323.203 435.139 323.203 432.664V430.552C323.203 428.12 321.709 426.904 318.723 426.904H316.931V436.376ZM316.931 454.36H318.979C321.965 454.36 323.459 453.144 323.459 450.712V448.152C323.459 445.677 321.965 444.44 318.979 444.44H316.931V454.36ZM336.276 463V418.2H361.492V427.032H345.62V435.928H357.588V444.824H345.62V454.168H361.492V463H336.276ZM376.165 464.024C372.282 464.024 369.167 462.765 366.821 460.248C364.517 457.688 363.365 454.061 363.365 449.368H372.133C372.133 451.587 372.517 453.208 373.285 454.232C374.053 455.213 375.034 455.704 376.229 455.704C377.338 455.704 378.191 455.384 378.789 454.744C379.386 454.061 379.685 453.165 379.685 452.056C379.685 450.776 379.365 449.667 378.725 448.728C378.085 447.789 377.253 446.915 376.229 446.104C375.247 445.293 374.181 444.461 373.029 443.608C371.578 442.499 370.106 441.325 368.613 440.088C367.162 438.851 365.946 437.379 364.965 435.672C363.983 433.923 363.493 431.811 363.493 429.336C363.493 426.861 364.005 424.728 365.029 422.936C366.095 421.101 367.525 419.693 369.317 418.712C371.151 417.688 373.221 417.176 375.525 417.176C378.042 417.176 380.239 417.752 382.117 418.904C384.037 420.056 385.509 421.699 386.533 423.832C387.599 425.923 388.133 428.376 388.133 431.192H379.365C379.365 429.315 379.023 427.928 378.341 427.032C377.701 426.093 376.805 425.624 375.653 425.624C374.671 425.624 373.882 425.944 373.285 426.584C372.687 427.224 372.389 428.056 372.389 429.08C372.389 430.659 373.007 432.003 374.245 433.112C375.525 434.221 377.125 435.48 379.045 436.888C380.623 438.04 382.138 439.235 383.589 440.472C385.039 441.709 386.234 443.181 387.173 444.888C388.111 446.595 388.581 448.728 388.581 451.288C388.581 455.085 387.45 458.157 385.189 460.504C382.97 462.851 379.962 464.024 376.165 464.024ZM396.725 463V427.032H388.725V418.2H413.941V427.032H405.941V463H396.725ZM411.662 463L418.382 418.2H430.094L436.878 463H427.598L426.958 456.856H421.71L421.006 463H411.662ZM423.438 441.368L422.67 447.96H425.998L425.294 441.368L424.974 432.216H423.822L423.438 441.368ZM439.588 463V418.2H451.172C455.439 418.2 458.66 419.181 460.836 421.144C463.055 423.064 464.164 425.923 464.164 429.72V433.432C464.164 437.827 461.903 440.536 457.38 441.56V442.584C459.77 443.011 461.604 443.885 462.884 445.208C464.164 446.531 464.804 448.387 464.804 450.776V463H455.396V449.688C455.396 448.493 454.991 447.576 454.18 446.936C453.37 446.296 452.239 445.976 450.788 445.976H448.868V463H439.588ZM448.868 437.912H450.276C453.263 437.912 454.756 436.675 454.756 434.2V430.552C454.756 428.12 453.263 426.904 450.276 426.904H448.868V437.912ZM479.985 464.024C477.51 464.024 475.313 463.384 473.393 462.104C471.515 460.781 470.043 458.968 468.977 456.664C467.91 454.36 467.377 451.715 467.377 448.728V432.408C467.377 429.421 467.91 426.797 468.977 424.536C470.043 422.232 471.515 420.44 473.393 419.16C475.313 417.837 477.51 417.176 479.985 417.176C482.459 417.176 484.635 417.837 486.513 419.16C488.433 420.44 489.926 422.232 490.993 424.536C492.059 426.797 492.593 429.421 492.593 432.408V436.568H483.121V431.64C483.121 427.971 482.075 426.136 479.985 426.136C477.894 426.136 476.849 427.971 476.849 431.64V449.56C476.849 453.229 477.894 455.064 479.985 455.064C482.075 455.064 483.121 453.229 483.121 449.56V444.632H492.593V448.728C492.593 451.715 492.059 454.36 490.993 456.664C489.926 458.968 488.433 460.781 486.513 462.104C484.635 463.384 482.459 464.024 479.985 464.024Z" fill="url(#paint8_linear_2_47)"/>
<path d="M722 30C722 18.9543 730.954 10 742 10H767C778.046 10 787 18.9543 787 30V43C787 54.0457 778.046 63 767 63H742C730.954 63 722 54.0457 722 43V30Z" fill="url(#paint9_linear_2_47)"/>
<path d="M734.424 28.25L750.398 44.75L742.411 53V20L750.398 28.25L742.411 36.5L734.424 44.75" stroke="#F4F4F4" stroke-width="3" stroke-linecap="round" stroke-linejoin="round"/>
<g clip-path="url(#clip1_2_47)">
<path d="M765.698 26.875C768.099 29.5928 769.414 33.018 769.414 36.555C769.414 40.092 768.099 43.5172 765.698 46.235M770.875 21.9525C774.632 25.9708 776.704 31.1434 776.704 36.5C776.704 41.8566 774.632 47.0292 770.875 51.0475M760.506 31.7287C761.558 33.1247 762.123 34.7945 762.123 36.5069C762.123 38.2192 761.558 39.8891 760.506 41.285M754.833 36.5V36.5137" stroke="#F4F4F4" stroke-width="4" stroke-linecap="round" stroke-linejoin="round"/>
</g>
<path d="M11 412C11 400.954 19.9543 392 31 392H118C129.046 392 138 400.954 138 412V443C138 454.046 129.046 463 118 463H31C19.9543 463 11 454.046 11 443V412Z" fill="url(#paint10_linear_2_47)"/>
<path d="M11 392H138H11M138 443C138 454.598 128.598 464 117 464H31C19.402 464 10 454.598 10 443H12C12 453.493 20.5066 462 31 462H118C129.046 462 138 453.493 138 443ZM31 464C19.402 464 10 454.598 10 443V413C10 401.402 19.402 392 31 392C20.5066 392 12 400.954 12 412V443C12 453.493 20.5066 462 31 462V464ZM31 462M138 392V463V392" fill="#4D00FF"/>
<path d="M57.0124 438.76V433.576L62.2444 411.4H69.2044L63.9724 432.424H66.4684V427.24L73.4284 423.928V432.424H76.0204V438.76H73.4284V445H66.4684V438.76H57.0124ZM80.3951 445V418.024H74.3951V411.4H93.3071V418.024H87.3071V445H80.3951Z" fill="#F4F4F4"/>
<path d="M11 224C11 212.954 19.9543 204 31 204H118C129.046 204 138 212.954 138 224V255C138 266.046 129.046 275 118 275H31C19.9543 275 11 266.046 11 255V224Z" fill="url(#paint11_linear_2_47)"/>
<path d="M11 204H138H11M138 255C138 266.598 128.598 276 117 276H31C19.402 276 10 266.598 10 255H12C12 265.493 20.5066 274 31 274H118C129.046 274 138 265.493 138 255ZM31 276C19.402 276 10 266.598 10 255V225C10 213.402 19.402 204 31 204C20.5066 204 12 212.954 12 224V255C12 265.493 20.5066 274 31 274V276ZM31 274M138 204V275V204" fill="#4D00FF"/>
<path d="M34.4673 257.768C31.5553 257.768 29.2193 256.824 27.4593 254.936C25.7313 253.016 24.8673 250.296 24.8673 246.776H31.4433C31.4433 248.44 31.7313 249.656 32.3073 250.424C32.8833 251.16 33.6193 251.528 34.5153 251.528C35.3473 251.528 35.9873 251.288 36.4353 250.808C36.8833 250.296 37.1073 249.624 37.1073 248.792C37.1073 247.832 36.8673 247 36.3873 246.296C35.9073 245.592 35.2833 244.936 34.5153 244.328C33.7793 243.72 32.9793 243.096 32.1153 242.456C31.0273 241.624 29.9233 240.744 28.8033 239.816C27.7153 238.888 26.8033 237.784 26.0673 236.504C25.3313 235.192 24.9633 233.608 24.9633 231.752C24.9633 229.896 25.3473 228.296 26.1153 226.952C26.9153 225.576 27.9873 224.52 29.3313 223.784C30.7073 223.016 32.2593 222.632 33.9873 222.632C35.8753 222.632 37.5233 223.064 38.9313 223.928C40.3713 224.792 41.4753 226.024 42.2433 227.624C43.0433 229.192 43.4433 231.032 43.4433 233.144H36.8673C36.8673 231.736 36.6113 230.696 36.0993 230.024C35.6193 229.32 34.9473 228.968 34.0833 228.968C33.3473 228.968 32.7553 229.208 32.3073 229.688C31.8593 230.168 31.6353 230.792 31.6353 231.56C31.6353 232.744 32.0993 233.752 33.0273 234.584C33.9873 235.416 35.1873 236.36 36.6273 237.416C37.8113 238.28 38.9473 239.176 40.0353 240.104C41.1233 241.032 42.0193 242.136 42.7233 243.416C43.4273 244.696 43.7793 246.296 43.7793 248.216C43.7793 251.064 42.9313 253.368 41.2353 255.128C39.5713 256.888 37.3153 257.768 34.4673 257.768ZM49.8873 257V230.024H43.8873V223.4H62.7993V230.024H56.7993V257H49.8873ZM64.8318 257V223.4H83.7438V230.024H71.8398V236.696H80.8158V243.368H71.8398V250.376H83.7438V257H64.8318ZM86.3006 257V223.4H105.213V230.024H93.3086V236.696H102.285V243.368H93.3086V250.376H105.213V257H86.3006ZM107.769 257V223.4H114.777V250.376H126.681V257H107.769Z" fill="#F4F4F4"/>
<path d="M11 36C11 24.9543 19.9543 16 31 16H118C129.046 16 138 24.9543 138 36V67C138 78.0457 129.046 87 118 87H31C19.9543 87 11 78.0457 11 67V36Z" fill="url(#paint12_linear_2_47)"/>
<path d="M11 16H138H11M138 67C138 78.598 128.598 88 117 88H31C19.402 88 10 78.598 10 67H12C12 77.4934 20.5066 86 31 86H118C129.046 86 138 77.4934 138 67ZM31 88C19.402 88 10 78.598 10 67V37C10 25.402 19.402 16 31 16C20.5066 16 12 24.9543 12 36V67C12 77.4934 20.5066 86 31 86V88ZM31 86M138 16V87V16" fill="#4D00FF"/>
<path d="M35.0526 69V63.384L44.4126 50.76C45.3726 49.448 46.0446 48.248 46.4286 47.16C46.8446 46.072 47.0526 45.112 47.0526 44.28C47.0526 43.416 46.8446 42.712 46.4286 42.168C46.0126 41.624 45.4366 41.352 44.7006 41.352C43.9326 41.352 43.3246 41.688 42.8766 42.36C42.4286 43 42.2046 43.928 42.2046 45.144H35.3886C35.3886 42.712 35.8366 40.728 36.7326 39.192C37.6606 37.624 38.8606 36.472 40.3326 35.736C41.8046 35 43.3406 34.632 44.9406 34.632C46.4446 34.632 47.8846 34.968 49.2606 35.64C50.6686 36.28 51.8206 37.288 52.7166 38.664C53.6126 40.04 54.0606 41.832 54.0606 44.04C54.0606 45.704 53.7086 47.432 53.0046 49.224C52.3326 51.016 51.0686 53.16 49.2126 55.656L44.0286 62.664H54.0606L53.8206 69H35.0526ZM55.4432 69V63.384L64.8032 50.76C65.7632 49.448 66.4352 48.248 66.8192 47.16C67.2352 46.072 67.4432 45.112 67.4432 44.28C67.4432 43.416 67.2352 42.712 66.8192 42.168C66.4032 41.624 65.8272 41.352 65.0912 41.352C64.3232 41.352 63.7152 41.688 63.2672 42.36C62.8192 43 62.5952 43.928 62.5952 45.144H55.7792C55.7792 42.712 56.2272 40.728 57.1232 39.192C58.0512 37.624 59.2512 36.472 60.7232 35.736C62.1952 35 63.7312 34.632 65.3312 34.632C66.8352 34.632 68.2752 34.968 69.6512 35.64C71.0592 36.28 72.2112 37.288 73.1072 38.664C74.0032 40.04 74.4512 41.832 74.4512 44.04C74.4512 45.704 74.0992 47.432 73.3952 49.224C72.7232 51.016 71.4592 53.16 69.6032 55.656L64.4192 62.664H74.4512L74.2112 69H55.4432ZM85.9138 69.768C84.0578 69.768 82.4098 69.288 80.9698 68.328C79.5618 67.336 78.4418 65.976 77.6098 64.248C76.8098 62.52 76.4098 60.536 76.4098 58.296V46.056C76.4098 43.816 76.8098 41.848 77.6098 40.152C78.4418 38.424 79.5618 37.08 80.9698 36.12C82.4098 35.128 84.0578 34.632 85.9138 34.632C87.7698 34.632 89.4018 35.128 90.8098 36.12C92.2498 37.08 93.3698 38.424 94.1698 40.152C95.0018 41.848 95.4178 43.816 95.4178 46.056V58.296C95.4178 60.536 95.0018 62.52 94.1698 64.248C93.3698 65.976 92.2498 67.336 90.8098 68.328C89.4018 69.288 87.7698 69.768 85.9138 69.768ZM85.9138 63.048C87.5138 63.048 88.3138 61.672 88.3138 58.92V45.48C88.3138 42.728 87.5138 41.352 85.9138 41.352C84.3138 41.352 83.5138 42.728 83.5138 45.48V58.92C83.5138 61.672 84.3138 63.048 85.9138 63.048ZM101.537 69L96.4487 35.4H103.409L105.857 55.416L108.353 35.4H115.361L110.321 69H101.537Z" fill="#F4F4F4"/>
<rect x="677" y="103" width="19" height="299" rx="9.5" fill="url(#paint13_linear_2_47)"/>
<path d="M656.684 460V447.4H660.212C661.352 447.4 662.228 447.742 662.84 448.426C663.464 449.098 663.776 450.064 663.776 451.324V451.63C663.776 452.89 663.464 453.862 662.84 454.546C662.228 455.23 661.352 455.572 660.212 455.572H659.294V460H656.684ZM659.852 449.848H659.294V453.124H659.852C660.692 453.124 661.112 452.668 661.112 451.756V451.216C661.112 450.304 660.692 449.848 659.852 449.848ZM664.057 460V457.516H666.307V449.884H664.057V447.4H671.149V449.884H668.917V457.516H671.149V460H664.057ZM672.1 460V447.4H674.728V457.516H679.192V460H672.1ZM682.899 460.288C682.203 460.288 681.585 460.108 681.045 459.748C680.517 459.376 680.097 458.866 679.785 458.218C679.485 457.57 679.335 456.826 679.335 455.986V451.396C679.335 450.556 679.485 449.818 679.785 449.182C680.097 448.534 680.517 448.03 681.045 447.67C681.585 447.298 682.203 447.112 682.899 447.112C683.595 447.112 684.207 447.298 684.735 447.67C685.275 448.03 685.695 448.534 685.995 449.182C686.307 449.818 686.463 450.556 686.463 451.396V455.986C686.463 456.826 686.307 457.57 685.995 458.218C685.695 458.866 685.275 459.376 684.735 459.748C684.207 460.108 683.595 460.288 682.899 460.288ZM682.899 457.768C683.499 457.768 683.799 457.252 683.799 456.22V451.18C683.799 450.148 683.499 449.632 682.899 449.632C682.299 449.632 681.999 450.148 681.999 451.18V456.22C681.999 457.252 682.299 457.768 682.899 457.768ZM688.926 460V449.884H686.676V447.4H693.768V449.884H691.518V460H688.926ZM695.904 460L697.794 447.4H701.088L702.996 460H700.386L700.206 458.272H698.73L698.532 460H695.904ZM699.216 453.916L699 455.77H699.936L699.738 453.916L699.648 451.342H699.324L699.216 453.916ZM703.758 460V447.4H707.016C708.216 447.4 709.122 447.676 709.734 448.228C710.358 448.768 710.67 449.572 710.67 450.64V451.684C710.67 452.92 710.034 453.682 708.762 453.97V454.258C709.434 454.378 709.95 454.624 710.31 454.996C710.67 455.368 710.85 455.89 710.85 456.562V460H708.204V456.256C708.204 455.92 708.09 455.662 707.862 455.482C707.634 455.302 707.316 455.212 706.908 455.212H706.368V460H703.758ZM706.368 452.944H706.764C707.604 452.944 708.024 452.596 708.024 451.9V450.874C708.024 450.19 707.604 449.848 706.764 449.848H706.368V452.944ZM715.12 460.288C714.424 460.288 713.806 460.108 713.266 459.748C712.738 459.376 712.324 458.866 712.024 458.218C711.724 457.57 711.574 456.826 711.574 455.986V451.396C711.574 450.556 711.724 449.818 712.024 449.182C712.324 448.534 712.738 448.03 713.266 447.67C713.806 447.298 714.424 447.112 715.12 447.112C715.816 447.112 716.428 447.298 716.956 447.67C717.496 448.03 717.916 448.534 718.216 449.182C718.516 449.818 718.666 450.556 718.666 451.396V452.566H716.002V451.18C716.002 450.148 715.708 449.632 715.12 449.632C714.532 449.632 714.238 450.148 714.238 451.18V456.22C714.238 457.252 714.532 457.768 715.12 457.768C715.708 457.768 716.002 457.252 716.002 456.22V454.834H718.666V455.986C718.666 456.826 718.516 457.57 718.216 458.218C717.916 458.866 717.496 459.376 716.956 459.748C716.428 460.108 715.816 460.288 715.12 460.288Z" fill="#F4F4F4"/>
<path d="M680.815 438.512C679.62 438.512 678.532 438.224 677.551 437.648C676.591 437.072 675.833 436.272 675.279 435.248C674.724 434.203 674.447 432.976 674.447 431.568H679.183C679.183 433.211 679.716 434.032 680.783 434.032C681.849 434.032 682.383 432.987 682.383 430.896C682.383 428.827 681.86 427.792 680.815 427.792C680.175 427.792 679.716 428.091 679.439 428.688L674.991 427.312L677.071 415.6H686.639L686.479 419.824H681.039L680.239 424.208C680.559 423.909 680.921 423.685 681.327 423.536C681.732 423.387 682.137 423.312 682.543 423.312C683.439 423.312 684.228 423.621 684.911 424.24C685.593 424.859 686.127 425.712 686.511 426.8C686.916 427.867 687.119 429.115 687.119 430.544C687.119 432.144 686.863 433.541 686.351 434.736C685.839 435.931 685.113 436.859 684.175 437.52C683.236 438.181 682.116 438.512 680.815 438.512ZM694.379 438.512C692.438 438.512 690.881 437.883 689.707 436.624C688.555 435.344 687.979 433.531 687.979 431.184H692.363C692.363 432.293 692.555 433.104 692.939 433.616C693.323 434.107 693.814 434.352 694.411 434.352C694.966 434.352 695.393 434.192 695.691 433.872C695.99 433.531 696.139 433.083 696.139 432.528C696.139 431.888 695.979 431.333 695.659 430.864C695.339 430.395 694.923 429.957 694.411 429.552C693.921 429.147 693.387 428.731 692.811 428.304C692.086 427.749 691.35 427.163 690.603 426.544C689.878 425.925 689.27 425.189 688.779 424.336C688.289 423.461 688.043 422.405 688.043 421.168C688.043 419.931 688.299 418.864 688.811 417.968C689.345 417.051 690.059 416.347 690.955 415.856C691.873 415.344 692.907 415.088 694.059 415.088C695.318 415.088 696.417 415.376 697.355 415.952C698.315 416.528 699.051 417.349 699.563 418.416C700.097 419.461 700.363 420.688 700.363 422.096H695.979C695.979 421.157 695.809 420.464 695.467 420.016C695.147 419.547 694.699 419.312 694.123 419.312C693.633 419.312 693.238 419.472 692.939 419.792C692.641 420.112 692.491 420.528 692.491 421.04C692.491 421.829 692.801 422.501 693.419 423.056C694.059 423.611 694.859 424.24 695.819 424.944C696.609 425.52 697.366 426.117 698.091 426.736C698.817 427.355 699.414 428.091 699.883 428.944C700.353 429.797 700.587 430.864 700.587 432.144C700.587 434.043 700.022 435.579 698.891 436.752C697.782 437.925 696.278 438.512 694.379 438.512Z" fill="#F4F4F4"/>
<rect x="750" y="103" width="19" height="299" rx="9.5" fill="url(#paint14_linear_2_47)"/>
<path d="M732.998 460V447.4H736.526C737.666 447.4 738.542 447.742 739.154 448.426C739.778 449.098 740.09 450.064 740.09 451.324V451.63C740.09 452.89 739.778 453.862 739.154 454.546C738.542 455.23 737.666 455.572 736.526 455.572H735.608V460H732.998ZM736.166 449.848H735.608V453.124H736.166C737.006 453.124 737.426 452.668 737.426 451.756V451.216C737.426 450.304 737.006 449.848 736.166 449.848ZM744.202 460.288C743.506 460.288 742.888 460.108 742.348 459.748C741.82 459.376 741.4 458.866 741.088 458.218C740.788 457.57 740.638 456.826 740.638 455.986V451.396C740.638 450.556 740.788 449.818 741.088 449.182C741.4 448.534 741.82 448.03 742.348 447.67C742.888 447.298 743.506 447.112 744.202 447.112C744.898 447.112 745.51 447.298 746.038 447.67C746.578 448.03 746.998 448.534 747.298 449.182C747.61 449.818 747.766 450.556 747.766 451.396V455.986C747.766 456.826 747.61 457.57 747.298 458.218C746.998 458.866 746.578 459.376 746.038 459.748C745.51 460.108 744.898 460.288 744.202 460.288ZM744.202 457.768C744.802 457.768 745.102 457.252 745.102 456.22V451.18C745.102 450.148 744.802 449.632 744.202 449.632C743.602 449.632 743.302 450.148 743.302 451.18V456.22C743.302 457.252 743.602 457.768 744.202 457.768ZM752.022 460.288C750.93 460.288 750.054 459.934 749.394 459.226C748.746 458.506 748.422 457.486 748.422 456.166H750.888C750.888 456.79 750.996 457.246 751.212 457.534C751.428 457.81 751.704 457.948 752.04 457.948C752.352 457.948 752.592 457.858 752.76 457.678C752.928 457.486 753.012 457.234 753.012 456.922C753.012 456.562 752.922 456.25 752.742 455.986C752.562 455.722 752.328 455.476 752.04 455.248C751.764 455.02 751.464 454.786 751.14 454.546C750.732 454.234 750.318 453.904 749.898 453.556C749.49 453.208 749.148 452.794 748.872 452.314C748.596 451.822 748.458 451.228 748.458 450.532C748.458 449.836 748.602 449.236 748.89 448.732C749.19 448.216 749.592 447.82 750.096 447.544C750.612 447.256 751.194 447.112 751.842 447.112C752.55 447.112 753.168 447.274 753.696 447.598C754.236 447.922 754.65 448.384 754.938 448.984C755.238 449.572 755.388 450.262 755.388 451.054H752.922C752.922 450.526 752.826 450.136 752.634 449.884C752.454 449.62 752.202 449.488 751.878 449.488C751.602 449.488 751.38 449.578 751.212 449.758C751.044 449.938 750.96 450.172 750.96 450.46C750.96 450.904 751.134 451.282 751.482 451.594C751.842 451.906 752.292 452.26 752.832 452.656C753.276 452.98 753.702 453.316 754.11 453.664C754.518 454.012 754.854 454.426 755.118 454.906C755.382 455.386 755.514 455.986 755.514 456.706C755.514 457.774 755.196 458.638 754.56 459.298C753.936 459.958 753.09 460.288 752.022 460.288ZM757.804 460V449.884H755.554V447.4H762.646V449.884H760.396V460H757.804ZM764.783 460L766.673 447.4H769.967L771.875 460H769.265L769.085 458.272H767.609L767.411 460H764.783ZM768.095 453.916L767.879 455.77H768.815L768.617 453.916L768.527 451.342H768.203L768.095 453.916ZM772.223 460V457.516H774.473V449.884H772.223V447.4H779.315V449.884H777.083V457.516H779.315V460H772.223ZM780.266 460V447.4H783.524C784.724 447.4 785.63 447.676 786.242 448.228C786.866 448.768 787.178 449.572 787.178 450.64V451.684C787.178 452.92 786.542 453.682 785.27 453.97V454.258C785.942 454.378 786.458 454.624 786.818 454.996C787.178 455.368 787.358 455.89 787.358 456.562V460H784.712V456.256C784.712 455.92 784.598 455.662 784.37 455.482C784.142 455.302 783.824 455.212 783.416 455.212H782.876V460H780.266ZM782.876 452.944H783.272C784.112 452.944 784.532 452.596 784.532 451.9V450.874C784.532 450.19 784.112 449.848 783.272 449.848H782.876V452.944Z" fill="#F4F4F4"/>
<path d="M753.114 415.088C754.394 415.088 755.514 415.387 756.474 415.984C757.434 416.581 758.18 417.435 758.714 418.544C759.247 419.632 759.514 420.923 759.514 422.416V430.896C759.514 432.389 759.258 433.712 758.746 434.864C758.255 435.995 757.54 436.891 756.602 437.552C755.663 438.192 754.532 438.512 753.21 438.512C751.994 438.512 750.906 438.235 749.946 437.68C749.007 437.104 748.26 436.293 747.706 435.248C747.172 434.203 746.906 432.976 746.906 431.568H751.642C751.642 433.211 752.164 434.032 753.21 434.032C754.255 434.032 754.778 433.115 754.778 431.28V428.464C754.33 429.061 753.871 429.467 753.402 429.68C752.932 429.872 752.41 429.968 751.834 429.968C750.81 429.968 749.924 429.659 749.178 429.04C748.452 428.4 747.887 427.536 747.482 426.448C747.098 425.339 746.906 424.08 746.906 422.672C746.906 420.133 747.482 418.235 748.634 416.976C749.807 415.717 751.3 415.088 753.114 415.088ZM753.21 419.568C752.164 419.568 751.642 420.592 751.642 422.64V422.736C751.642 424.784 752.164 425.808 753.21 425.808C753.764 425.808 754.159 425.573 754.394 425.104C754.65 424.635 754.778 423.845 754.778 422.736V422.64C754.778 421.573 754.65 420.795 754.394 420.304C754.138 419.813 753.743 419.568 753.21 419.568ZM767.176 438.512C765.235 438.512 763.677 437.883 762.504 436.624C761.352 435.344 760.776 433.531 760.776 431.184H765.16C765.16 432.293 765.352 433.104 765.736 433.616C766.12 434.107 766.611 434.352 767.208 434.352C767.763 434.352 768.189 434.192 768.488 433.872C768.787 433.531 768.936 433.083 768.936 432.528C768.936 431.888 768.776 431.333 768.456 430.864C768.136 430.395 767.72 429.957 767.208 429.552C766.717 429.147 766.184 428.731 765.608 428.304C764.883 427.749 764.147 427.163 763.4 426.544C762.675 425.925 762.067 425.189 761.576 424.336C761.085 423.461 760.84 422.405 760.84 421.168C760.84 419.931 761.096 418.864 761.608 417.968C762.141 417.051 762.856 416.347 763.752 415.856C764.669 415.344 765.704 415.088 766.856 415.088C768.115 415.088 769.213 415.376 770.152 415.952C771.112 416.528 771.848 417.349 772.36 418.416C772.893 419.461 773.16 420.688 773.16 422.096H768.776C768.776 421.157 768.605 420.464 768.264 420.016C767.944 419.547 767.496 419.312 766.92 419.312C766.429 419.312 766.035 419.472 765.736 419.792C765.437 420.112 765.288 420.528 765.288 421.04C765.288 421.829 765.597 422.501 766.216 423.056C766.856 423.611 767.656 424.24 768.616 424.944C769.405 425.52 770.163 426.117 770.888 426.736C771.613 427.355 772.211 428.091 772.68 428.944C773.149 429.797 773.384 430.864 773.384 432.144C773.384 434.043 772.819 435.579 771.688 436.752C770.579 437.925 769.075 438.512 767.176 438.512Z" fill="#F4F4F4"/>
</g>
<defs>
<radialGradient id="paint0_radial_2_47" cx="0" cy="0" r="1" gradientUnits="userSpaceOnUse" gradientTransform="translate(400 240) rotate(90) scale(240 400)">
<stop offset="0.0192308" stop-color="#2F009A"/>
<stop offset="0.283654" stop-color="#2B017E"/>
<stop offset="0.9999"/>
</radialGradient>
<linearGradient id="paint1_linear_2_47" x1="400" y1="62" x2="400" y2="512" gradientUnits="userSpaceOnUse">
<stop offset="0.177885" stop-color="#4D00FF"/>
<stop offset="1" stop-color="#FF2A6D"/>
</linearGradient>
<linearGradient id="paint2_linear_2_47" x1="289.5" y1="162" x2="289.5" y2="318" gradientUnits="userSpaceOnUse">
<stop offset="0.206731" stop-color="#00F0FF"/>
<stop offset="1" stop-color="#FF00FF"/>
</linearGradient>
<linearGradient id="paint3_linear_2_47" x1="290" y1="303" x2="290" y2="392" gradientUnits="userSpaceOnUse">
<stop offset="0.21" stop-color="#00F0FF"/>
<stop offset="1" stop-color="#FF00FF"/>
</linearGradient>
<linearGradient id="paint4_linear_2_47" x1="400" y1="37" x2="400" y2="537" gradientUnits="userSpaceOnUse">
<stop stop-color="#FF2A6D"/>
<stop offset="0.326923" stop-color="#FE8C3B"/>
<stop offset="0.923077" stop-color="#05FF00"/>
</linearGradient>
<linearGradient id="paint5_linear_2_47" x1="512" y1="162" x2="512" y2="318" gradientUnits="userSpaceOnUse">
<stop offset="0.206731" stop-color="#00F0FF"/>
<stop offset="1" stop-color="#FF00FF"/>
</linearGradient>
<linearGradient id="paint6_linear_2_47" x1="512" y1="303" x2="512" y2="392" gradientUnits="userSpaceOnUse">
<stop offset="0.360577" stop-color="#00F0FF"/>
<stop offset="1" stop-color="#FF00FF"/>
</linearGradient>
<linearGradient id="paint7_linear_2_47" x1="400" y1="37" x2="400" y2="537" gradientUnits="userSpaceOnUse">
<stop stop-color="#4D00FF"/>
<stop offset="0.326923" stop-color="#00F0FF"/>
<stop offset="0.923077" stop-color="#05FF00"/>
</linearGradient>
<linearGradient id="paint8_linear_2_47" x1="399.5" y1="402" x2="399.5" y2="471" gradientUnits="userSpaceOnUse">
<stop stop-color="#4D00FF" stop-opacity="0.2"/>
<stop offset="1" stop-color="#FF2A6D"/>
</linearGradient>
<linearGradient id="paint9_linear_2_47" x1="754.5" y1="10" x2="754.5" y2="63" gradientUnits="userSpaceOnUse">
<stop stop-color="#4D00FF"/>
<stop offset="0.288462" stop-color="#1D97FF"/>
<stop offset="1" stop-color="#00F0FF"/>
</linearGradient>
<linearGradient id="paint10_linear_2_47" x1="74.5" y1="392" x2="74.5" y2="463" gradientUnits="userSpaceOnUse">
<stop stop-color="#4D00FF"/>
<stop offset="1" stop-color="#2E0099" stop-opacity="0.6"/>
</linearGradient>
<linearGradient id="paint11_linear_2_47" x1="74.5" y1="204" x2="74.5" y2="275" gradientUnits="userSpaceOnUse">
<stop stop-color="#4D00FF"/>
<stop offset="1" stop-color="#2E0099" stop-opacity="0.6"/>
</linearGradient>
<linearGradient id="paint12_linear_2_47" x1="74.5" y1="16" x2="74.5" y2="87" gradientUnits="userSpaceOnUse">
<stop stop-color="#4D00FF"/>
<stop offset="1" stop-color="#2E0099" stop-opacity="0.6"/>
</linearGradient>
<linearGradient id="paint13_linear_2_47" x1="686.5" y1="103" x2="686.5" y2="402" gradientUnits="userSpaceOnUse">
<stop stop-color="#00F0FF"/>
<stop offset="1" stop-color="#05FF00"/>
</linearGradient>
<linearGradient id="paint14_linear_2_47" x1="759.5" y1="103" x2="759.5" y2="402" gradientUnits="userSpaceOnUse">
<stop stop-color="#00F0FF"/>
<stop offset="1" stop-color="#05FF00"/>
</linearGradient>
<clipPath id="clip0_2_47">
<rect width="800" height="480" fill="white"/>
</clipPath>
<clipPath id="clip1_2_47">
<rect width="33" height="35" fill="white" transform="matrix(0 1 -1 0 784 20)"/>
</clipPath>
</defs>
</svg>
